<svg width="637" height="4" viewBox="0 0 637 4" fill="none" xmlns="http://www.w3.org/2000/svg">
<circle r="1.99988" transform="matrix(1 0 0 -1 2.68152 2)" fill="#FFE200"/>
<circle r="1.99988" transform="matrix(1 0 0 -1 10.681 1.99989)" fill="#FFE200"/>
<circle r="1.99988" transform="matrix(1 0 0 -1 18.6806 1.99989)" fill="#FFE200"/>
<circle r="1.99988" transform="matrix(1 0 0 -1 26.6801 1.99989)" fill="#FFE200"/>
<circle r="1.99988" transform="matrix(1 0 0 -1 34.6796 1.99989)" fill="#FFE200"/>
<circle r="1.99988" transform="matrix(1 0 0 -1 42.6792 1.99989)" fill="#FFE200"/>
<circle r="1.99988" transform="matrix(1 0 0 -1 50.6787 1.99989)" fill="#FFE200"/>
<circle r="1.99988" transform="matrix(1 0 0 -1 58.6782 1.99989)" fill="#FFE200"/>
<circle r="1.99988" transform="matrix(1 0 0 -1 66.6777 1.99989)" fill="#FFE200"/>
<circle r="1.99988" transform="matrix(1 0 0 -1 74.6772 1.99989)" fill="#FFE200"/>
<circle r="1.99988" transform="matrix(1 0 0 -1 82.6768 1.99989)" fill="#FFE200"/>
<circle r="1.99988" transform="matrix(1 0 0 -1 90.6763 1.99989)" fill="#FFE200"/>
<circle r="1.99988" transform="matrix(1 0 0 -1 98.6758 1.99989)" fill="#FFE200"/>
<circle r="1.99988" transform="matrix(1 0 0 -1 106.675 1.99989)" fill="#FFE200"/>
<circle r="1.99988" transform="matrix(1 0 0 -1 114.675 1.99989)" fill="#FFE200"/>
<circle r="1.99988" transform="matrix(1 0 0 -1 122.674 1.99989)" fill="#FFE200"/>
<circle r="1.99988" transform="matrix(1 0 0 -1 130.674 1.99989)" fill="#FFE200"/>
<circle r="1.99988" transform="matrix(1 0 0 -1 138.673 1.99989)" fill="#FFE200"/>
<circle r="1.99988" transform="matrix(1 0 0 -1 146.673 1.99989)" fill="#FFE200"/>
<circle r="1.99988" transform="matrix(1 0 0 -1 154.673 1.99989)" fill="#FFE200"/>
<circle r="1.99988" transform="matrix(1 0 0 -1 162.672 1.99989)" fill="#FFE200"/>
<circle r="1.99988" transform="matrix(1 0 0 -1 170.672 1.99989)" fill="#FFE200"/>
<circle r="1.99988" transform="matrix(1 0 0 -1 178.671 1.99989)" fill="#FFE200"/>
<circle r="1.99988" transform="matrix(1 0 0 -1 186.671 1.99989)" fill="#FFE200"/>
<circle r="1.99988" transform="matrix(1 0 0 -1 194.67 1.99989)" fill="#FFE200"/>
<circle r="1.99988" transform="matrix(1 0 0 -1 202.67 1.99989)" fill="#FFE200"/>
<circle r="1.99988" transform="matrix(1 0 0 -1 210.669 1.99989)" fill="#FFE200"/>
<circle r="1.99988" transform="matrix(1 0 0 -1 218.669 1.99989)" fill="#FFE200"/>
<circle r="1.99988" transform="matrix(1 0 0 -1 226.668 1.99989)" fill="#FFE200"/>
<circle r="1.99988" transform="matrix(1 0 0 -1 234.668 1.99989)" fill="#FFE200"/>
<circle r="1.99988" transform="matrix(1 0 0 -1 242.667 1.99989)" fill="#FFE200"/>
<circle r="1.99988" transform="matrix(1 0 0 -1 250.667 1.99989)" fill="#FFE200"/>
<circle r="1.99988" transform="matrix(1 0 0 -1 258.666 1.99989)" fill="#FFE200"/>
<circle r="1.99988" transform="matrix(1 0 0 -1 266.666 1.99989)" fill="#FFE200"/>
<circle r="1.99988" transform="matrix(1 0 0 -1 274.665 1.99989)" fill="#FFE200"/>
<circle r="1.99988" transform="matrix(1 0 0 -1 282.665 1.99989)" fill="#FFE200"/>
<circle r="1.99988" transform="matrix(1 0 0 -1 290.664 1.99989)" fill="#FFE200"/>
<circle r="1.99988" transform="matrix(1 0 0 -1 298.664 1.99989)" fill="#FFE200"/>
<circle r="1.99988" transform="matrix(1 0 0 -1 306.663 1.99989)" fill="#FFE200"/>
<circle r="1.99988" transform="matrix(1 0 0 -1 314.663 1.99989)" fill="#FFE200"/>
<circle r="1.99988" transform="matrix(1 0 0 -1 322.337 2)" fill="#FFE200"/>
<circle r="1.99988" transform="matrix(1 0 0 -1 330.337 1.99989)" fill="#FFE200"/>
<circle r="1.99988" transform="matrix(1 0 0 -1 338.336 1.99989)" fill="#FFE200"/>
<circle r="1.99988" transform="matrix(1 0 0 -1 346.336 1.99989)" fill="#FFE200"/>
<circle r="1.99988" transform="matrix(1 0 0 -1 354.335 1.99989)" fill="#FFE200"/>
<circle r="1.99988" transform="matrix(1 0 0 -1 362.335 1.99989)" fill="#FFE200"/>
<circle r="1.99988" transform="matrix(1 0 0 -1 370.334 1.99989)" fill="#FFE200"/>
<circle r="1.99988" transform="matrix(1 0 0 -1 378.334 1.99989)" fill="#FFE200"/>
<circle r="1.99988" transform="matrix(1 0 0 -1 386.333 1.99989)" fill="#FFE200"/>
<circle r="1.99988" transform="matrix(1 0 0 -1 394.333 1.99989)" fill="#FFE200"/>
<circle r="1.99988" transform="matrix(1 0 0 -1 402.332 1.99989)" fill="#FFE200"/>
<circle r="1.99988" transform="matrix(1 0 0 -1 410.332 1.99989)" fill="#FFE200"/>
<circle r="1.99988" transform="matrix(1 0 0 -1 418.331 1.99989)" fill="#FFE200"/>
<circle r="1.99988" transform="matrix(1 0 0 -1 426.331 1.99989)" fill="#FFE200"/>
<circle r="1.99988" transform="matrix(1 0 0 -1 434.33 1.99989)" fill="#FFE200"/>
<circle r="1.99988" transform="matrix(1 0 0 -1 442.33 1.99989)" fill="#FFE200"/>
<circle r="1.99988" transform="matrix(1 0 0 -1 450.329 1.99989)" fill="#FFE200"/>
<circle r="1.99988" transform="matrix(1 0 0 -1 458.329 1.99989)" fill="#FFE200"/>
<circle r="1.99988" transform="matrix(1 0 0 -1 466.328 1.99989)" fill="#FFE200"/>
<circle r="1.99988" transform="matrix(1 0 0 -1 474.328 1.99989)" fill="#FFE200"/>
<circle r="1.99988" transform="matrix(1 0 0 -1 482.327 1.99989)" fill="#FFE200"/>
<circle r="1.99988" transform="matrix(1 0 0 -1 490.327 1.99989)" fill="#FFE200"/>
<circle r="1.99988" transform="matrix(1 0 0 -1 498.327 1.99989)" fill="#FFE200"/>
<circle r="1.99988" transform="matrix(1 0 0 -1 506.326 1.99989)" fill="#FFE200"/>
<circle r="1.99988" transform="matrix(1 0 0 -1 514.326 1.99989)" fill="#FFE200"/>
<circle r="1.99988" transform="matrix(1 0 0 -1 522.325 1.99989)" fill="#FFE200"/>
<circle r="1.99988" transform="matrix(1 0 0 -1 530.325 1.99989)" fill="#FFE200"/>
<circle r="1.99988" transform="matrix(1 0 0 -1 538.324 1.99989)" fill="#FFE200"/>
<circle r="1.99988" transform="matrix(1 0 0 -1 546.324 1.99989)" fill="#FFE200"/>
<circle r="1.99988" transform="matrix(1 0 0 -1 554.323 1.99989)" fill="#FFE200"/>
<circle r="1.99988" transform="matrix(1 0 0 -1 562.323 1.99989)" fill="#FFE200"/>
<circle r="1.99988" transform="matrix(1 0 0 -1 570.322 1.99989)" fill="#FFE200"/>
<circle r="1.99988" transform="matrix(1 0 0 -1 578.322 1.99989)" fill="#FFE200"/>
<circle r="1.99988" transform="matrix(1 0 0 -1 586.321 1.99989)" fill="#FFE200"/>
<circle r="1.99988" transform="matrix(1 0 0 -1 594.321 1.99989)" fill="#FFE200"/>
<circle r="1.99988" transform="matrix(1 0 0 -1 602.32 1.99989)" fill="#FFE200"/>
<circle r="1.99988" transform="matrix(1 0 0 -1 610.32 1.99989)" fill="#FFE200"/>
<circle r="1.99988" transform="matrix(1 0 0 -1 618.319 1.99989)" fill="#FFE200"/>
<circle r="1.99988" transform="matrix(1 0 0 -1 626.319 1.99989)" fill="#FFE200"/>
<circle r="1.99988" transform="matrix(1 0 0 -1 634.318 1.99989)" fill="#FFE200"/>
</svg>
